<mxfile host="app.diagrams.net" modified="2020-10-29T04:32:25.076Z" agent="5.0 (Windows NT 10.0; Win64; x64) AppleWebKit/537.36 (KHTML, like Gecko) Chrome/86.0.4240.111 Safari/537.36" etag="biert7FIfuVFHYoWGW7P" version="13.8.6" type="github">
  <diagram id="C5RBs43oDa-KdzZeNtuy" name="Page-1">
    <mxGraphModel dx="2903" dy="1160" grid="1" gridSize="10" guides="1" tooltips="1" connect="1" arrows="1" fold="1" page="1" pageScale="1" pageWidth="827" pageHeight="1169" math="0" shadow="0">
      <root>
        <mxCell id="WIyWlLk6GJQsqaUBKTNV-0" />
        <mxCell id="WIyWlLk6GJQsqaUBKTNV-1" parent="WIyWlLk6GJQsqaUBKTNV-0" />
        <mxCell id="vsN9rLNtvl--MQkACp_t-0" value="Khách hàng" style="shape=umlActor;verticalLabelPosition=bottom;verticalAlign=top;html=1;outlineConnect=0;" parent="WIyWlLk6GJQsqaUBKTNV-1" vertex="1">
          <mxGeometry x="-10" y="260" width="30" height="60" as="geometry" />
        </mxCell>
        <mxCell id="vsN9rLNtvl--MQkACp_t-1" value="Xem danh sách món ăn" style="ellipse;whiteSpace=wrap;html=1;" parent="WIyWlLk6GJQsqaUBKTNV-1" vertex="1">
          <mxGeometry x="130" width="120" height="80" as="geometry" />
        </mxCell>
        <mxCell id="vsN9rLNtvl--MQkACp_t-3" value="Thêm món ăn vào card" style="ellipse;whiteSpace=wrap;html=1;" parent="WIyWlLk6GJQsqaUBKTNV-1" vertex="1">
          <mxGeometry x="230" y="70" width="120" height="80" as="geometry" />
        </mxCell>
        <mxCell id="vsN9rLNtvl--MQkACp_t-4" value="Xóa món ăn khỏi card" style="ellipse;whiteSpace=wrap;html=1;" parent="WIyWlLk6GJQsqaUBKTNV-1" vertex="1">
          <mxGeometry x="260" y="170" width="120" height="80" as="geometry" />
        </mxCell>
        <mxCell id="vsN9rLNtvl--MQkACp_t-5" value="Chỉnh sửa số lượng món ăn" style="ellipse;whiteSpace=wrap;html=1;" parent="WIyWlLk6GJQsqaUBKTNV-1" vertex="1">
          <mxGeometry x="260" y="280" width="120" height="80" as="geometry" />
        </mxCell>
        <mxCell id="vsN9rLNtvl--MQkACp_t-6" value="Thanh toán" style="ellipse;whiteSpace=wrap;html=1;" parent="WIyWlLk6GJQsqaUBKTNV-1" vertex="1">
          <mxGeometry x="170" y="410" width="120" height="80" as="geometry" />
        </mxCell>
        <mxCell id="vsN9rLNtvl--MQkACp_t-7" value="Tính phí ship" style="ellipse;whiteSpace=wrap;html=1;" parent="WIyWlLk6GJQsqaUBKTNV-1" vertex="1">
          <mxGeometry x="390" y="420" width="120" height="80" as="geometry" />
        </mxCell>
        <mxCell id="vsN9rLNtvl--MQkACp_t-8" value="Tìm kiếm món ăn" style="ellipse;whiteSpace=wrap;html=1;" parent="WIyWlLk6GJQsqaUBKTNV-1" vertex="1">
          <mxGeometry x="-220" y="250" width="120" height="80" as="geometry" />
        </mxCell>
        <mxCell id="vsN9rLNtvl--MQkACp_t-9" value="Theo tên" style="ellipse;whiteSpace=wrap;html=1;" parent="WIyWlLk6GJQsqaUBKTNV-1" vertex="1">
          <mxGeometry x="-440" y="170" width="120" height="80" as="geometry" />
        </mxCell>
        <mxCell id="vsN9rLNtvl--MQkACp_t-10" value="Theo category" style="ellipse;whiteSpace=wrap;html=1;" parent="WIyWlLk6GJQsqaUBKTNV-1" vertex="1">
          <mxGeometry x="-470" y="260" width="120" height="80" as="geometry" />
        </mxCell>
        <mxCell id="vsN9rLNtvl--MQkACp_t-11" value="Theo lượng calo" style="ellipse;whiteSpace=wrap;html=1;" parent="WIyWlLk6GJQsqaUBKTNV-1" vertex="1">
          <mxGeometry x="-440" y="370" width="120" height="80" as="geometry" />
        </mxCell>
        <mxCell id="vsN9rLNtvl--MQkACp_t-12" value="" style="endArrow=classic;html=1;entryX=0;entryY=0;entryDx=0;entryDy=0;" parent="WIyWlLk6GJQsqaUBKTNV-1" source="vsN9rLNtvl--MQkACp_t-9" target="vsN9rLNtvl--MQkACp_t-8" edge="1">
          <mxGeometry width="50" height="50" relative="1" as="geometry">
            <mxPoint x="-210" y="190" as="sourcePoint" />
            <mxPoint x="-230" y="340" as="targetPoint" />
          </mxGeometry>
        </mxCell>
        <mxCell id="vsN9rLNtvl--MQkACp_t-15" value="exend" style="edgeLabel;html=1;align=center;verticalAlign=middle;resizable=0;points=[];" parent="vsN9rLNtvl--MQkACp_t-12" vertex="1" connectable="0">
          <mxGeometry x="-0.1449" y="2" relative="1" as="geometry">
            <mxPoint x="-6.42" y="0.5999999999999996" as="offset" />
          </mxGeometry>
        </mxCell>
        <mxCell id="vsN9rLNtvl--MQkACp_t-13" value="" style="endArrow=classic;html=1;exitX=0.992;exitY=0.383;exitDx=0;exitDy=0;exitPerimeter=0;entryX=0;entryY=0.5;entryDx=0;entryDy=0;" parent="WIyWlLk6GJQsqaUBKTNV-1" source="vsN9rLNtvl--MQkACp_t-10" target="vsN9rLNtvl--MQkACp_t-8" edge="1">
          <mxGeometry width="50" height="50" relative="1" as="geometry">
            <mxPoint x="-320" y="320" as="sourcePoint" />
            <mxPoint x="-250" y="260" as="targetPoint" />
          </mxGeometry>
        </mxCell>
        <mxCell id="vsN9rLNtvl--MQkACp_t-14" value="" style="endArrow=classic;html=1;exitX=1;exitY=0;exitDx=0;exitDy=0;entryX=0;entryY=1;entryDx=0;entryDy=0;" parent="WIyWlLk6GJQsqaUBKTNV-1" source="vsN9rLNtvl--MQkACp_t-11" target="vsN9rLNtvl--MQkACp_t-8" edge="1">
          <mxGeometry width="50" height="50" relative="1" as="geometry">
            <mxPoint x="-310" y="410" as="sourcePoint" />
            <mxPoint x="-200" y="370" as="targetPoint" />
          </mxGeometry>
        </mxCell>
        <mxCell id="vsN9rLNtvl--MQkACp_t-16" value="exend" style="edgeLabel;html=1;align=center;verticalAlign=middle;resizable=0;points=[];" parent="WIyWlLk6GJQsqaUBKTNV-1" vertex="1" connectable="0">
          <mxGeometry x="-329.996621815317" y="290.00180468135284" as="geometry">
            <mxPoint x="43" y="-5" as="offset" />
          </mxGeometry>
        </mxCell>
        <mxCell id="vsN9rLNtvl--MQkACp_t-17" value="exend" style="edgeLabel;html=1;align=center;verticalAlign=middle;resizable=0;points=[];" parent="WIyWlLk6GJQsqaUBKTNV-1" vertex="1" connectable="0">
          <mxGeometry x="-239.99662181531698" y="250.00180468135284" as="geometry">
            <mxPoint x="-35" y="96" as="offset" />
          </mxGeometry>
        </mxCell>
        <mxCell id="vsN9rLNtvl--MQkACp_t-18" value="" style="endArrow=classic;html=1;exitX=0.5;exitY=0.5;exitDx=0;exitDy=0;exitPerimeter=0;entryX=1;entryY=0.5;entryDx=0;entryDy=0;" parent="WIyWlLk6GJQsqaUBKTNV-1" source="vsN9rLNtvl--MQkACp_t-0" target="vsN9rLNtvl--MQkACp_t-8" edge="1">
          <mxGeometry width="50" height="50" relative="1" as="geometry">
            <mxPoint x="-80" y="260" as="sourcePoint" />
            <mxPoint x="-30" y="210" as="targetPoint" />
          </mxGeometry>
        </mxCell>
        <mxCell id="vsN9rLNtvl--MQkACp_t-19" value="" style="endArrow=classic;html=1;exitX=0.5;exitY=0.5;exitDx=0;exitDy=0;exitPerimeter=0;entryX=0.5;entryY=1;entryDx=0;entryDy=0;" parent="WIyWlLk6GJQsqaUBKTNV-1" source="vsN9rLNtvl--MQkACp_t-0" target="vsN9rLNtvl--MQkACp_t-1" edge="1">
          <mxGeometry width="50" height="50" relative="1" as="geometry">
            <mxPoint x="50" y="280" as="sourcePoint" />
            <mxPoint x="100" y="230" as="targetPoint" />
          </mxGeometry>
        </mxCell>
        <mxCell id="vsN9rLNtvl--MQkACp_t-20" value="" style="endArrow=classic;html=1;exitX=0.5;exitY=0.5;exitDx=0;exitDy=0;exitPerimeter=0;entryX=0;entryY=1;entryDx=0;entryDy=0;" parent="WIyWlLk6GJQsqaUBKTNV-1" source="vsN9rLNtvl--MQkACp_t-0" target="vsN9rLNtvl--MQkACp_t-3" edge="1">
          <mxGeometry width="50" height="50" relative="1" as="geometry">
            <mxPoint x="40" y="290" as="sourcePoint" />
            <mxPoint x="140" y="220" as="targetPoint" />
          </mxGeometry>
        </mxCell>
        <mxCell id="vsN9rLNtvl--MQkACp_t-21" value="" style="endArrow=classic;html=1;exitX=0.5;exitY=0.5;exitDx=0;exitDy=0;exitPerimeter=0;" parent="WIyWlLk6GJQsqaUBKTNV-1" source="vsN9rLNtvl--MQkACp_t-0" target="vsN9rLNtvl--MQkACp_t-4" edge="1">
          <mxGeometry width="50" height="50" relative="1" as="geometry">
            <mxPoint x="90" y="320" as="sourcePoint" />
            <mxPoint x="140" y="270" as="targetPoint" />
          </mxGeometry>
        </mxCell>
        <mxCell id="vsN9rLNtvl--MQkACp_t-22" value="" style="endArrow=classic;html=1;entryX=0;entryY=0.5;entryDx=0;entryDy=0;" parent="WIyWlLk6GJQsqaUBKTNV-1" target="vsN9rLNtvl--MQkACp_t-5" edge="1">
          <mxGeometry width="50" height="50" relative="1" as="geometry">
            <mxPoint x="5" y="291" as="sourcePoint" />
            <mxPoint x="120" y="300" as="targetPoint" />
          </mxGeometry>
        </mxCell>
        <mxCell id="vsN9rLNtvl--MQkACp_t-23" value="" style="endArrow=classic;html=1;exitX=0.5;exitY=0.5;exitDx=0;exitDy=0;exitPerimeter=0;entryX=0.288;entryY=0.013;entryDx=0;entryDy=0;entryPerimeter=0;" parent="WIyWlLk6GJQsqaUBKTNV-1" source="vsN9rLNtvl--MQkACp_t-0" target="vsN9rLNtvl--MQkACp_t-6" edge="1">
          <mxGeometry width="50" height="50" relative="1" as="geometry">
            <mxPoint x="-60" y="410" as="sourcePoint" />
            <mxPoint x="-10" y="360" as="targetPoint" />
          </mxGeometry>
        </mxCell>
        <mxCell id="vsN9rLNtvl--MQkACp_t-24" value="" style="endArrow=classic;html=1;exitX=1;exitY=0.5;exitDx=0;exitDy=0;entryX=0.012;entryY=0.388;entryDx=0;entryDy=0;entryPerimeter=0;" parent="WIyWlLk6GJQsqaUBKTNV-1" source="vsN9rLNtvl--MQkACp_t-6" target="vsN9rLNtvl--MQkACp_t-7" edge="1">
          <mxGeometry width="50" height="50" relative="1" as="geometry">
            <mxPoint x="130" y="530" as="sourcePoint" />
            <mxPoint x="180" y="480" as="targetPoint" />
          </mxGeometry>
        </mxCell>
        <mxCell id="vsN9rLNtvl--MQkACp_t-25" value="Include" style="edgeLabel;html=1;align=center;verticalAlign=middle;resizable=0;points=[];" parent="WIyWlLk6GJQsqaUBKTNV-1" vertex="1" connectable="0">
          <mxGeometry x="220.00337818468302" y="370.00180468135284" as="geometry">
            <mxPoint x="-35" y="96" as="offset" />
          </mxGeometry>
        </mxCell>
        <mxCell id="vsN9rLNtvl--MQkACp_t-26" value="Nhân viên" style="shape=umlActor;verticalLabelPosition=bottom;verticalAlign=top;html=1;outlineConnect=0;" parent="WIyWlLk6GJQsqaUBKTNV-1" vertex="1">
          <mxGeometry x="-5" y="660" width="30" height="60" as="geometry" />
        </mxCell>
        <mxCell id="vsN9rLNtvl--MQkACp_t-27" value="Login" style="ellipse;whiteSpace=wrap;html=1;" parent="WIyWlLk6GJQsqaUBKTNV-1" vertex="1">
          <mxGeometry x="-420" y="960" width="120" height="80" as="geometry" />
        </mxCell>
        <mxCell id="vsN9rLNtvl--MQkACp_t-28" value="Xác nhận đơn hàng(Khi đơn hàng đã được giao)" style="ellipse;whiteSpace=wrap;html=1;" parent="WIyWlLk6GJQsqaUBKTNV-1" vertex="1">
          <mxGeometry x="370" y="530" width="120" height="80" as="geometry" />
        </mxCell>
        <mxCell id="vsN9rLNtvl--MQkACp_t-29" value="Admin" style="shape=umlActor;verticalLabelPosition=bottom;verticalAlign=top;html=1;outlineConnect=0;" parent="WIyWlLk6GJQsqaUBKTNV-1" vertex="1">
          <mxGeometry y="1330" width="30" height="60" as="geometry" />
        </mxCell>
        <mxCell id="vsN9rLNtvl--MQkACp_t-30" value="Thêm nhân viên" style="ellipse;whiteSpace=wrap;html=1;" parent="WIyWlLk6GJQsqaUBKTNV-1" vertex="1">
          <mxGeometry x="470" y="750" width="120" height="80" as="geometry" />
        </mxCell>
        <mxCell id="vsN9rLNtvl--MQkACp_t-31" value="Chỉnh sửa thông tin nhân viên" style="ellipse;whiteSpace=wrap;html=1;" parent="WIyWlLk6GJQsqaUBKTNV-1" vertex="1">
          <mxGeometry x="390" y="670" width="120" height="80" as="geometry" />
        </mxCell>
        <mxCell id="vsN9rLNtvl--MQkACp_t-32" value="Xóa nhân viên" style="ellipse;whiteSpace=wrap;html=1;" parent="WIyWlLk6GJQsqaUBKTNV-1" vertex="1">
          <mxGeometry x="470" y="840" width="120" height="80" as="geometry" />
        </mxCell>
        <mxCell id="vsN9rLNtvl--MQkACp_t-33" value="Tìm kiếm nhân viên" style="ellipse;whiteSpace=wrap;html=1;" parent="WIyWlLk6GJQsqaUBKTNV-1" vertex="1">
          <mxGeometry x="470" y="930" width="120" height="80" as="geometry" />
        </mxCell>
        <mxCell id="vsN9rLNtvl--MQkACp_t-35" value="" style="endArrow=classic;html=1;exitX=0.5;exitY=0.5;exitDx=0;exitDy=0;exitPerimeter=0;" parent="WIyWlLk6GJQsqaUBKTNV-1" source="vsN9rLNtvl--MQkACp_t-26" target="vsN9rLNtvl--MQkACp_t-27" edge="1">
          <mxGeometry width="50" height="50" relative="1" as="geometry">
            <mxPoint x="145" y="750" as="sourcePoint" />
            <mxPoint x="210" y="660" as="targetPoint" />
          </mxGeometry>
        </mxCell>
        <mxCell id="vsN9rLNtvl--MQkACp_t-36" value="" style="endArrow=classic;html=1;exitX=0.5;exitY=0.5;exitDx=0;exitDy=0;exitPerimeter=0;" parent="WIyWlLk6GJQsqaUBKTNV-1" source="vsN9rLNtvl--MQkACp_t-26" target="vsN9rLNtvl--MQkACp_t-28" edge="1">
          <mxGeometry width="50" height="50" relative="1" as="geometry">
            <mxPoint x="180" y="740" as="sourcePoint" />
            <mxPoint x="230" y="690" as="targetPoint" />
          </mxGeometry>
        </mxCell>
        <mxCell id="vsN9rLNtvl--MQkACp_t-37" value="" style="endArrow=classic;html=1;exitX=0.5;exitY=0.5;exitDx=0;exitDy=0;exitPerimeter=0;entryX=0;entryY=0.5;entryDx=0;entryDy=0;" parent="WIyWlLk6GJQsqaUBKTNV-1" source="vsN9rLNtvl--MQkACp_t-26" target="vsN9rLNtvl--MQkACp_t-31" edge="1">
          <mxGeometry width="50" height="50" relative="1" as="geometry">
            <mxPoint x="220" y="780" as="sourcePoint" />
            <mxPoint x="270" y="730" as="targetPoint" />
          </mxGeometry>
        </mxCell>
        <mxCell id="vsN9rLNtvl--MQkACp_t-38" value="" style="endArrow=classic;html=1;exitX=1;exitY=0;exitDx=0;exitDy=0;entryX=0;entryY=1;entryDx=0;entryDy=0;" parent="WIyWlLk6GJQsqaUBKTNV-1" source="vsN9rLNtvl--MQkACp_t-41" target="vsN9rLNtvl--MQkACp_t-31" edge="1">
          <mxGeometry width="50" height="50" relative="1" as="geometry">
            <mxPoint x="180" y="970" as="sourcePoint" />
            <mxPoint x="240" y="910" as="targetPoint" />
          </mxGeometry>
        </mxCell>
        <mxCell id="vsN9rLNtvl--MQkACp_t-39" value="" style="endArrow=classic;html=1;entryX=0.018;entryY=0.588;entryDx=0;entryDy=0;entryPerimeter=0;exitX=1;exitY=0;exitDx=0;exitDy=0;" parent="WIyWlLk6GJQsqaUBKTNV-1" source="vsN9rLNtvl--MQkACp_t-41" target="vsN9rLNtvl--MQkACp_t-30" edge="1">
          <mxGeometry width="50" height="50" relative="1" as="geometry">
            <mxPoint x="190" y="1020" as="sourcePoint" />
            <mxPoint x="240" y="970" as="targetPoint" />
          </mxGeometry>
        </mxCell>
        <mxCell id="vsN9rLNtvl--MQkACp_t-40" value="" style="endArrow=classic;html=1;exitX=1;exitY=0;exitDx=0;exitDy=0;entryX=0;entryY=0.5;entryDx=0;entryDy=0;" parent="WIyWlLk6GJQsqaUBKTNV-1" source="vsN9rLNtvl--MQkACp_t-41" target="vsN9rLNtvl--MQkACp_t-32" edge="1">
          <mxGeometry width="50" height="50" relative="1" as="geometry">
            <mxPoint x="200" y="1040" as="sourcePoint" />
            <mxPoint x="250" y="990" as="targetPoint" />
          </mxGeometry>
        </mxCell>
        <mxCell id="vsN9rLNtvl--MQkACp_t-41" value="Quản lí nhân viên" style="ellipse;whiteSpace=wrap;html=1;" parent="WIyWlLk6GJQsqaUBKTNV-1" vertex="1">
          <mxGeometry x="150" y="930" width="120" height="80" as="geometry" />
        </mxCell>
        <mxCell id="vsN9rLNtvl--MQkACp_t-43" value="Quản lí đơn hàng" style="ellipse;whiteSpace=wrap;html=1;" parent="WIyWlLk6GJQsqaUBKTNV-1" vertex="1">
          <mxGeometry x="140" y="2160" width="120" height="80" as="geometry" />
        </mxCell>
        <mxCell id="vsN9rLNtvl--MQkACp_t-44" value="Xem danh sách nhân viên" style="ellipse;whiteSpace=wrap;html=1;" parent="WIyWlLk6GJQsqaUBKTNV-1" vertex="1">
          <mxGeometry x="420" y="1010" width="120" height="80" as="geometry" />
        </mxCell>
        <mxCell id="vsN9rLNtvl--MQkACp_t-45" value="" style="endArrow=classic;html=1;exitX=1;exitY=0;exitDx=0;exitDy=0;entryX=0;entryY=0.5;entryDx=0;entryDy=0;" parent="WIyWlLk6GJQsqaUBKTNV-1" source="vsN9rLNtvl--MQkACp_t-41" target="vsN9rLNtvl--MQkACp_t-44" edge="1">
          <mxGeometry width="50" height="50" relative="1" as="geometry">
            <mxPoint x="330" y="920" as="sourcePoint" />
            <mxPoint x="450" y="940" as="targetPoint" />
          </mxGeometry>
        </mxCell>
        <mxCell id="vsN9rLNtvl--MQkACp_t-59" value="Thêm món ăn" style="ellipse;whiteSpace=wrap;html=1;" parent="WIyWlLk6GJQsqaUBKTNV-1" vertex="1">
          <mxGeometry x="480" y="1210" width="120" height="80" as="geometry" />
        </mxCell>
        <mxCell id="vsN9rLNtvl--MQkACp_t-60" value="Chỉnh sửa thông tin món ăn" style="ellipse;whiteSpace=wrap;html=1;" parent="WIyWlLk6GJQsqaUBKTNV-1" vertex="1">
          <mxGeometry x="430" y="1110" width="120" height="80" as="geometry" />
        </mxCell>
        <mxCell id="vsN9rLNtvl--MQkACp_t-61" value="Xóa món ăn" style="ellipse;whiteSpace=wrap;html=1;" parent="WIyWlLk6GJQsqaUBKTNV-1" vertex="1">
          <mxGeometry x="530" y="1310" width="120" height="80" as="geometry" />
        </mxCell>
        <mxCell id="vsN9rLNtvl--MQkACp_t-62" value="Quản lí món ăn" style="ellipse;whiteSpace=wrap;html=1;" parent="WIyWlLk6GJQsqaUBKTNV-1" vertex="1">
          <mxGeometry x="150" y="1310" width="120" height="80" as="geometry" />
        </mxCell>
        <mxCell id="vsN9rLNtvl--MQkACp_t-63" value="" style="endArrow=classic;html=1;exitX=1;exitY=0.5;exitDx=0;exitDy=0;entryX=0;entryY=0.5;entryDx=0;entryDy=0;" parent="WIyWlLk6GJQsqaUBKTNV-1" source="vsN9rLNtvl--MQkACp_t-62" target="vsN9rLNtvl--MQkACp_t-60" edge="1">
          <mxGeometry width="50" height="50" relative="1" as="geometry">
            <mxPoint x="210" y="1410" as="sourcePoint" />
            <mxPoint x="437.57359312880726" y="1178.2842712474617" as="targetPoint" />
          </mxGeometry>
        </mxCell>
        <mxCell id="vsN9rLNtvl--MQkACp_t-64" value="" style="endArrow=classic;html=1;entryX=0;entryY=0.5;entryDx=0;entryDy=0;exitX=1;exitY=0.5;exitDx=0;exitDy=0;" parent="WIyWlLk6GJQsqaUBKTNV-1" source="vsN9rLNtvl--MQkACp_t-62" target="vsN9rLNtvl--MQkACp_t-59" edge="1">
          <mxGeometry width="50" height="50" relative="1" as="geometry">
            <mxPoint x="220" y="1460" as="sourcePoint" />
            <mxPoint x="482.15999999999985" y="1237.04" as="targetPoint" />
          </mxGeometry>
        </mxCell>
        <mxCell id="vsN9rLNtvl--MQkACp_t-65" value="" style="endArrow=classic;html=1;exitX=1;exitY=0.5;exitDx=0;exitDy=0;entryX=0;entryY=0.5;entryDx=0;entryDy=0;" parent="WIyWlLk6GJQsqaUBKTNV-1" source="vsN9rLNtvl--MQkACp_t-62" target="vsN9rLNtvl--MQkACp_t-61" edge="1">
          <mxGeometry width="50" height="50" relative="1" as="geometry">
            <mxPoint x="230" y="1480" as="sourcePoint" />
            <mxPoint x="500" y="1310" as="targetPoint" />
          </mxGeometry>
        </mxCell>
        <mxCell id="vsN9rLNtvl--MQkACp_t-67" value="" style="endArrow=classic;html=1;exitX=1;exitY=0.5;exitDx=0;exitDy=0;entryX=0;entryY=0.5;entryDx=0;entryDy=0;" parent="WIyWlLk6GJQsqaUBKTNV-1" source="vsN9rLNtvl--MQkACp_t-62" target="vsN9rLNtvl--MQkACp_t-69" edge="1">
          <mxGeometry width="50" height="50" relative="1" as="geometry">
            <mxPoint x="360" y="1360" as="sourcePoint" />
            <mxPoint x="480" y="1480" as="targetPoint" />
          </mxGeometry>
        </mxCell>
        <mxCell id="vsN9rLNtvl--MQkACp_t-68" value="Tìm kiếm món ăn" style="ellipse;whiteSpace=wrap;html=1;" parent="WIyWlLk6GJQsqaUBKTNV-1" vertex="1">
          <mxGeometry x="520" y="1400" width="120" height="80" as="geometry" />
        </mxCell>
        <mxCell id="vsN9rLNtvl--MQkACp_t-69" value="Xem danh sách món ăn" style="ellipse;whiteSpace=wrap;html=1;" parent="WIyWlLk6GJQsqaUBKTNV-1" vertex="1">
          <mxGeometry x="420" y="1480" width="120" height="80" as="geometry" />
        </mxCell>
        <mxCell id="vsN9rLNtvl--MQkACp_t-70" value="" style="endArrow=classic;html=1;exitX=1;exitY=0.5;exitDx=0;exitDy=0;" parent="WIyWlLk6GJQsqaUBKTNV-1" source="vsN9rLNtvl--MQkACp_t-62" target="vsN9rLNtvl--MQkACp_t-68" edge="1">
          <mxGeometry width="50" height="50" relative="1" as="geometry">
            <mxPoint x="300" y="1250" as="sourcePoint" />
            <mxPoint x="500" y="1372" as="targetPoint" />
          </mxGeometry>
        </mxCell>
        <mxCell id="vsN9rLNtvl--MQkACp_t-71" value="Thông kê&amp;nbsp;" style="ellipse;whiteSpace=wrap;html=1;" parent="WIyWlLk6GJQsqaUBKTNV-1" vertex="1">
          <mxGeometry x="370" y="2160" width="120" height="80" as="geometry" />
        </mxCell>
        <mxCell id="vsN9rLNtvl--MQkACp_t-72" value="" style="endArrow=classic;html=1;exitX=0.5;exitY=0.5;exitDx=0;exitDy=0;exitPerimeter=0;" parent="WIyWlLk6GJQsqaUBKTNV-1" source="vsN9rLNtvl--MQkACp_t-29" target="vsN9rLNtvl--MQkACp_t-43" edge="1">
          <mxGeometry width="50" height="50" relative="1" as="geometry">
            <mxPoint x="150" y="1430" as="sourcePoint" />
            <mxPoint x="200" y="1380" as="targetPoint" />
          </mxGeometry>
        </mxCell>
        <mxCell id="vsN9rLNtvl--MQkACp_t-73" value="" style="endArrow=classic;html=1;" parent="WIyWlLk6GJQsqaUBKTNV-1" source="vsN9rLNtvl--MQkACp_t-43" target="vsN9rLNtvl--MQkACp_t-71" edge="1">
          <mxGeometry width="50" height="50" relative="1" as="geometry">
            <mxPoint x="320" y="1650" as="sourcePoint" />
            <mxPoint x="-160" y="1043" as="targetPoint" />
          </mxGeometry>
        </mxCell>
        <mxCell id="vsN9rLNtvl--MQkACp_t-74" value="" style="endArrow=classic;html=1;exitX=1;exitY=0;exitDx=0;exitDy=0;entryX=0;entryY=0.5;entryDx=0;entryDy=0;" parent="WIyWlLk6GJQsqaUBKTNV-1" source="vsN9rLNtvl--MQkACp_t-41" target="vsN9rLNtvl--MQkACp_t-33" edge="1">
          <mxGeometry width="50" height="50" relative="1" as="geometry">
            <mxPoint x="400" y="910" as="sourcePoint" />
            <mxPoint x="550" y="1040" as="targetPoint" />
          </mxGeometry>
        </mxCell>
        <mxCell id="vsN9rLNtvl--MQkACp_t-76" value="" style="endArrow=classic;html=1;exitX=0.5;exitY=0.5;exitDx=0;exitDy=0;exitPerimeter=0;entryX=0;entryY=0.5;entryDx=0;entryDy=0;" parent="WIyWlLk6GJQsqaUBKTNV-1" source="vsN9rLNtvl--MQkACp_t-29" target="vsN9rLNtvl--MQkACp_t-41" edge="1">
          <mxGeometry width="50" height="50" relative="1" as="geometry">
            <mxPoint x="230" y="1020" as="sourcePoint" />
            <mxPoint x="280" y="970" as="targetPoint" />
          </mxGeometry>
        </mxCell>
        <mxCell id="vsN9rLNtvl--MQkACp_t-79" value="" style="endArrow=classic;html=1;exitX=0.5;exitY=0.5;exitDx=0;exitDy=0;exitPerimeter=0;entryX=0;entryY=0.5;entryDx=0;entryDy=0;" parent="WIyWlLk6GJQsqaUBKTNV-1" source="vsN9rLNtvl--MQkACp_t-29" target="vsN9rLNtvl--MQkACp_t-62" edge="1">
          <mxGeometry width="50" height="50" relative="1" as="geometry">
            <mxPoint x="160" y="1150" as="sourcePoint" />
            <mxPoint x="210" y="1100" as="targetPoint" />
          </mxGeometry>
        </mxCell>
        <mxCell id="vsN9rLNtvl--MQkACp_t-80" value="" style="endArrow=classic;html=1;entryX=0.5;entryY=1;entryDx=0;entryDy=0;exitX=0.5;exitY=0.5;exitDx=0;exitDy=0;exitPerimeter=0;" parent="WIyWlLk6GJQsqaUBKTNV-1" target="vsN9rLNtvl--MQkACp_t-27" edge="1" source="vsN9rLNtvl--MQkACp_t-29">
          <mxGeometry width="50" height="50" relative="1" as="geometry">
            <mxPoint x="10" y="1260" as="sourcePoint" />
            <mxPoint x="-0.14549394982191188" y="752.7839305139616" as="targetPoint" />
          </mxGeometry>
        </mxCell>
        <mxCell id="QTdZolVV6EcNHKWs4wAb-1" value="" style="endArrow=classic;html=1;entryX=0;entryY=0.5;entryDx=0;entryDy=0;exitX=0.5;exitY=0.5;exitDx=0;exitDy=0;exitPerimeter=0;" edge="1" parent="WIyWlLk6GJQsqaUBKTNV-1" source="vsN9rLNtvl--MQkACp_t-29" target="QTdZolVV6EcNHKWs4wAb-15">
          <mxGeometry width="50" height="50" relative="1" as="geometry">
            <mxPoint x="70" y="1030" as="sourcePoint" />
            <mxPoint x="130" y="1720" as="targetPoint" />
          </mxGeometry>
        </mxCell>
        <mxCell id="QTdZolVV6EcNHKWs4wAb-3" value="Thêm món ăn" style="ellipse;whiteSpace=wrap;html=1;" vertex="1" parent="WIyWlLk6GJQsqaUBKTNV-1">
          <mxGeometry x="480" y="1210" width="120" height="80" as="geometry" />
        </mxCell>
        <mxCell id="QTdZolVV6EcNHKWs4wAb-4" value="Xóa món ăn" style="ellipse;whiteSpace=wrap;html=1;" vertex="1" parent="WIyWlLk6GJQsqaUBKTNV-1">
          <mxGeometry x="530" y="1310" width="120" height="80" as="geometry" />
        </mxCell>
        <mxCell id="QTdZolVV6EcNHKWs4wAb-5" value="" style="endArrow=classic;html=1;exitX=1;exitY=0.5;exitDx=0;exitDy=0;entryX=0;entryY=0.5;entryDx=0;entryDy=0;" edge="1" parent="WIyWlLk6GJQsqaUBKTNV-1">
          <mxGeometry width="50" height="50" relative="1" as="geometry">
            <mxPoint x="270" y="1350" as="sourcePoint" />
            <mxPoint x="430" y="1150" as="targetPoint" />
          </mxGeometry>
        </mxCell>
        <mxCell id="QTdZolVV6EcNHKWs4wAb-6" value="" style="endArrow=classic;html=1;entryX=0;entryY=0.5;entryDx=0;entryDy=0;exitX=1;exitY=0.5;exitDx=0;exitDy=0;" edge="1" target="QTdZolVV6EcNHKWs4wAb-3" parent="WIyWlLk6GJQsqaUBKTNV-1">
          <mxGeometry width="50" height="50" relative="1" as="geometry">
            <mxPoint x="270" y="1350" as="sourcePoint" />
            <mxPoint x="482.15999999999985" y="1237.04" as="targetPoint" />
          </mxGeometry>
        </mxCell>
        <mxCell id="QTdZolVV6EcNHKWs4wAb-7" value="" style="endArrow=classic;html=1;exitX=1;exitY=0.5;exitDx=0;exitDy=0;entryX=0;entryY=0.5;entryDx=0;entryDy=0;" edge="1" target="QTdZolVV6EcNHKWs4wAb-4" parent="WIyWlLk6GJQsqaUBKTNV-1">
          <mxGeometry width="50" height="50" relative="1" as="geometry">
            <mxPoint x="270" y="1350" as="sourcePoint" />
            <mxPoint x="500" y="1310" as="targetPoint" />
          </mxGeometry>
        </mxCell>
        <mxCell id="QTdZolVV6EcNHKWs4wAb-8" value="" style="endArrow=classic;html=1;exitX=1;exitY=0.5;exitDx=0;exitDy=0;entryX=0;entryY=0.5;entryDx=0;entryDy=0;" edge="1" target="QTdZolVV6EcNHKWs4wAb-10" parent="WIyWlLk6GJQsqaUBKTNV-1">
          <mxGeometry width="50" height="50" relative="1" as="geometry">
            <mxPoint x="270" y="1350" as="sourcePoint" />
            <mxPoint x="480" y="1480" as="targetPoint" />
          </mxGeometry>
        </mxCell>
        <mxCell id="QTdZolVV6EcNHKWs4wAb-9" value="Tìm kiếm món ăn" style="ellipse;whiteSpace=wrap;html=1;" vertex="1" parent="WIyWlLk6GJQsqaUBKTNV-1">
          <mxGeometry x="520" y="1400" width="120" height="80" as="geometry" />
        </mxCell>
        <mxCell id="QTdZolVV6EcNHKWs4wAb-10" value="Xem danh sách món ăn" style="ellipse;whiteSpace=wrap;html=1;" vertex="1" parent="WIyWlLk6GJQsqaUBKTNV-1">
          <mxGeometry x="420" y="1480" width="120" height="80" as="geometry" />
        </mxCell>
        <mxCell id="QTdZolVV6EcNHKWs4wAb-11" value="" style="endArrow=classic;html=1;exitX=1;exitY=0.5;exitDx=0;exitDy=0;" edge="1" target="QTdZolVV6EcNHKWs4wAb-9" parent="WIyWlLk6GJQsqaUBKTNV-1">
          <mxGeometry width="50" height="50" relative="1" as="geometry">
            <mxPoint x="270" y="1350" as="sourcePoint" />
            <mxPoint x="500" y="1372" as="targetPoint" />
          </mxGeometry>
        </mxCell>
        <mxCell id="QTdZolVV6EcNHKWs4wAb-12" value="Thêm món ăn" style="ellipse;whiteSpace=wrap;html=1;" vertex="1" parent="WIyWlLk6GJQsqaUBKTNV-1">
          <mxGeometry x="460" y="1710" width="120" height="80" as="geometry" />
        </mxCell>
        <mxCell id="QTdZolVV6EcNHKWs4wAb-13" value="Chỉnh sửa thông tin category" style="ellipse;whiteSpace=wrap;html=1;" vertex="1" parent="WIyWlLk6GJQsqaUBKTNV-1">
          <mxGeometry x="400" y="1620" width="120" height="80" as="geometry" />
        </mxCell>
        <mxCell id="QTdZolVV6EcNHKWs4wAb-14" value="Xóa món ăn" style="ellipse;whiteSpace=wrap;html=1;" vertex="1" parent="WIyWlLk6GJQsqaUBKTNV-1">
          <mxGeometry x="510" y="1810" width="120" height="80" as="geometry" />
        </mxCell>
        <mxCell id="QTdZolVV6EcNHKWs4wAb-15" value="Quản lí category" style="ellipse;whiteSpace=wrap;html=1;" vertex="1" parent="WIyWlLk6GJQsqaUBKTNV-1">
          <mxGeometry x="160" y="1770" width="120" height="80" as="geometry" />
        </mxCell>
        <mxCell id="QTdZolVV6EcNHKWs4wAb-16" value="" style="endArrow=classic;html=1;exitX=1;exitY=0.5;exitDx=0;exitDy=0;entryX=0;entryY=0.5;entryDx=0;entryDy=0;" edge="1" parent="WIyWlLk6GJQsqaUBKTNV-1" source="QTdZolVV6EcNHKWs4wAb-15" target="QTdZolVV6EcNHKWs4wAb-13">
          <mxGeometry width="50" height="50" relative="1" as="geometry">
            <mxPoint x="190" y="1910" as="sourcePoint" />
            <mxPoint x="417.57359312880726" y="1678.2842712474617" as="targetPoint" />
          </mxGeometry>
        </mxCell>
        <mxCell id="QTdZolVV6EcNHKWs4wAb-17" value="" style="endArrow=classic;html=1;entryX=0;entryY=0.5;entryDx=0;entryDy=0;exitX=1;exitY=0.5;exitDx=0;exitDy=0;" edge="1" parent="WIyWlLk6GJQsqaUBKTNV-1" source="QTdZolVV6EcNHKWs4wAb-15" target="QTdZolVV6EcNHKWs4wAb-12">
          <mxGeometry width="50" height="50" relative="1" as="geometry">
            <mxPoint x="200" y="1960" as="sourcePoint" />
            <mxPoint x="462.15999999999985" y="1737.04" as="targetPoint" />
          </mxGeometry>
        </mxCell>
        <mxCell id="QTdZolVV6EcNHKWs4wAb-18" value="" style="endArrow=classic;html=1;exitX=1;exitY=0.5;exitDx=0;exitDy=0;entryX=0;entryY=0.5;entryDx=0;entryDy=0;" edge="1" parent="WIyWlLk6GJQsqaUBKTNV-1" source="QTdZolVV6EcNHKWs4wAb-15" target="QTdZolVV6EcNHKWs4wAb-14">
          <mxGeometry width="50" height="50" relative="1" as="geometry">
            <mxPoint x="210" y="1980" as="sourcePoint" />
            <mxPoint x="480" y="1810" as="targetPoint" />
          </mxGeometry>
        </mxCell>
        <mxCell id="QTdZolVV6EcNHKWs4wAb-19" value="" style="endArrow=classic;html=1;exitX=1;exitY=0.5;exitDx=0;exitDy=0;entryX=0;entryY=0.5;entryDx=0;entryDy=0;" edge="1" parent="WIyWlLk6GJQsqaUBKTNV-1" source="QTdZolVV6EcNHKWs4wAb-15" target="QTdZolVV6EcNHKWs4wAb-21">
          <mxGeometry width="50" height="50" relative="1" as="geometry">
            <mxPoint x="340" y="1860" as="sourcePoint" />
            <mxPoint x="460" y="1980" as="targetPoint" />
          </mxGeometry>
        </mxCell>
        <mxCell id="QTdZolVV6EcNHKWs4wAb-20" value="Tìm kiếm món ăn" style="ellipse;whiteSpace=wrap;html=1;" vertex="1" parent="WIyWlLk6GJQsqaUBKTNV-1">
          <mxGeometry x="500" y="1900" width="120" height="80" as="geometry" />
        </mxCell>
        <mxCell id="QTdZolVV6EcNHKWs4wAb-21" value="Xem danh sách món ăn" style="ellipse;whiteSpace=wrap;html=1;" vertex="1" parent="WIyWlLk6GJQsqaUBKTNV-1">
          <mxGeometry x="400" y="1980" width="120" height="80" as="geometry" />
        </mxCell>
        <mxCell id="QTdZolVV6EcNHKWs4wAb-22" value="" style="endArrow=classic;html=1;exitX=1;exitY=0.5;exitDx=0;exitDy=0;" edge="1" parent="WIyWlLk6GJQsqaUBKTNV-1" source="QTdZolVV6EcNHKWs4wAb-15" target="QTdZolVV6EcNHKWs4wAb-20">
          <mxGeometry width="50" height="50" relative="1" as="geometry">
            <mxPoint x="280" y="1750" as="sourcePoint" />
            <mxPoint x="480" y="1872" as="targetPoint" />
          </mxGeometry>
        </mxCell>
        <mxCell id="QTdZolVV6EcNHKWs4wAb-23" value="Thêm category" style="ellipse;whiteSpace=wrap;html=1;" vertex="1" parent="WIyWlLk6GJQsqaUBKTNV-1">
          <mxGeometry x="460" y="1710" width="120" height="80" as="geometry" />
        </mxCell>
        <mxCell id="QTdZolVV6EcNHKWs4wAb-24" value="Xóa category" style="ellipse;whiteSpace=wrap;html=1;" vertex="1" parent="WIyWlLk6GJQsqaUBKTNV-1">
          <mxGeometry x="510" y="1810" width="120" height="80" as="geometry" />
        </mxCell>
        <mxCell id="QTdZolVV6EcNHKWs4wAb-29" value="Tìm kiếm category" style="ellipse;whiteSpace=wrap;html=1;" vertex="1" parent="WIyWlLk6GJQsqaUBKTNV-1">
          <mxGeometry x="500" y="1900" width="120" height="80" as="geometry" />
        </mxCell>
        <mxCell id="QTdZolVV6EcNHKWs4wAb-30" value="Xem danh sách category" style="ellipse;whiteSpace=wrap;html=1;" vertex="1" parent="WIyWlLk6GJQsqaUBKTNV-1">
          <mxGeometry x="400" y="1980" width="120" height="80" as="geometry" />
        </mxCell>
      </root>
    </mxGraphModel>
  </diagram>
</mxfile>
